HIERARCHY
ROOT Hips
{
    OFFSET   0.000000   0.000000   0.000000
    CHANNELS 6 Xposition Yposition Zposition Zrotation Xrotation Yrotation
    JOINT Chest
    {
        OFFSET   0.000000   8.007230   0.000000
        CHANNELS 3 Zrotation Xrotation Yrotation
        JOINT Chest2
        {
            OFFSET   0.000000  22.077100   0.000000
            CHANNELS 3 Zrotation Xrotation Yrotation
            JOINT Neck
            {
                OFFSET   0.000000  23.255100   0.000000
                CHANNELS 3 Zrotation Xrotation Yrotation
                JOINT Head
                {
                    OFFSET   0.000000  14.370100   1.956600
                    CHANNELS 3 Zrotation Xrotation Yrotation
                    End Site
                    {
                        OFFSET   0.000000  19.566000   0.000000
                    }
                }
            }
            JOINT LeftCollar
            {
                OFFSET   3.911900  19.017000  -0.467063
                CHANNELS 3 Zrotation Xrotation Yrotation
                JOINT LeftShoulder
                {
                    OFFSET  10.383700   0.000000   0.000000
                    CHANNELS 3 Zrotation Xrotation Yrotation
                    JOINT LeftElbow
                    {
                        OFFSET  26.662100   0.001193   0.000980
                        CHANNELS 3 Zrotation Xrotation Yrotation
                        JOINT LeftWrist
                        {
                            OFFSET  28.869000  -0.000059  -0.000082
                            CHANNELS 3 Zrotation Xrotation Yrotation
                            JOINT LeftFinger0
                            {
                                OFFSET   2.044650  -2.323450   3.252850
                                CHANNELS 3 Zrotation Xrotation Yrotation
                                JOINT LeftFinger01
                                {
                                    OFFSET   3.088130   0.000000   0.000000
                                    CHANNELS 3 Zrotation Xrotation Yrotation
                                    JOINT LeftFinger02
                                    {
                                        OFFSET   2.639460   0.000000   0.000000
                                        CHANNELS 3 Zrotation Xrotation Yrotation
                                        End Site
                                        {
                                            OFFSET   2.582190   0.000000   0.000000
                                        }
                                    }
                                }
                            }
                            JOINT LeftFinger1
                            {
                                OFFSET   8.364480   0.000000   3.252850
                                CHANNELS 3 Zrotation Xrotation Yrotation
                                JOINT LeftFinger11
                                {
                                    OFFSET   4.646930   0.000000   0.000000
                                    CHANNELS 3 Zrotation Xrotation Yrotation
                                    JOINT LeftFinger12
                                    {
                                        OFFSET   2.323470   0.000000   0.000000
                                        CHANNELS 3 Zrotation Xrotation Yrotation
                                        End Site
                                        {
                                            OFFSET   2.273050   0.000000   0.000000
                                        }
                                    }
                                }
                            }
                            JOINT LeftFinger2
                            {
                                OFFSET   8.364490   0.000016   1.078090
                                CHANNELS 3 Zrotation Xrotation Yrotation
                                JOINT LeftFinger21
                                {
                                    OFFSET   5.111610   0.000000   0.000000
                                    CHANNELS 3 Zrotation Xrotation Yrotation
                                    JOINT LeftFinger22
                                    {
                                        OFFSET   2.788150   0.000016   0.000000
                                        CHANNELS 3 Zrotation Xrotation Yrotation
                                        End Site
                                        {
                                            OFFSET   2.727660   0.000000   0.000000
                                        }
                                    }
                                }
                            }
                            JOINT LeftFinger3
                            {
                                OFFSET   7.899780   0.000015  -1.078090
                                CHANNELS 3 Zrotation Xrotation Yrotation
                                JOINT LeftFinger31
                                {
                                    OFFSET   4.646930   0.000000   0.000000
                                    CHANNELS 3 Zrotation Xrotation Yrotation
                                    JOINT LeftFinger32
                                    {
                                        OFFSET   2.323470   0.000000   0.000000
                                        CHANNELS 3 Zrotation Xrotation Yrotation
                                        End Site
                                        {
                                            OFFSET   2.273050   0.000000   0.000000
                                        }
                                    }
                                }
                            }
                            JOINT LeftFinger4
                            {
                                OFFSET   7.435090   0.000000  -3.252850
                                CHANNELS 3 Zrotation Xrotation Yrotation
                                JOINT LeftFinger41
                                {
                                    OFFSET   3.717550   0.000000   0.000000
                                    CHANNELS 3 Zrotation Xrotation Yrotation
                                    JOINT LeftFinger42
                                    {
                                        OFFSET   1.858770   0.000000   0.000000
                                        CHANNELS 3 Zrotation Xrotation Yrotation
                                        End Site
                                        {
                                            OFFSET   1.818440   0.000000   0.000000
                                        }
                                    }
                                }
                            }
                        }
                    }
                }
            }
            JOINT RightCollar
            {
                OFFSET  -3.911910  19.017000  -0.467062
                CHANNELS 3 Zrotation Xrotation Yrotation
                JOINT RightShoulder
                {
                    OFFSET -10.383700   0.000014   0.000000
                    CHANNELS 3 Zrotation Xrotation Yrotation
                    JOINT RightElbow
                    {
                        OFFSET -26.662100   0.001225   0.001091
                        CHANNELS 3 Zrotation Xrotation Yrotation
                        JOINT RightWrist
                        {
                            OFFSET -28.869000  -0.000020  -0.000085
                            CHANNELS 3 Zrotation Xrotation Yrotation
                            JOINT RightFinger0
                            {
                                OFFSET  -2.044650  -2.323490   3.252850
                                CHANNELS 3 Zrotation Xrotation Yrotation
                                JOINT RightFinger01
                                {
                                    OFFSET  -3.088130   0.000000   0.000000
                                    CHANNELS 3 Zrotation Xrotation Yrotation
                                    JOINT RightFinger02
                                    {
                                        OFFSET  -2.639460   0.000000   0.000000
                                        CHANNELS 3 Zrotation Xrotation Yrotation
                                        End Site
                                        {
                                            OFFSET  -2.582190   0.000000   0.000000
                                        }
                                    }
                                }
                            }
                            JOINT RightFinger1
                            {
                                OFFSET  -8.364480   0.000000   3.252850
                                CHANNELS 3 Zrotation Xrotation Yrotation
                                JOINT RightFinger11
                                {
                                    OFFSET  -4.646930   0.000000   0.000000
                                    CHANNELS 3 Zrotation Xrotation Yrotation
                                    JOINT RightFinger12
                                    {
                                        OFFSET  -2.323470   0.000000   0.000000
                                        CHANNELS 3 Zrotation Xrotation Yrotation
                                        End Site
                                        {
                                            OFFSET  -2.273050   0.000000   0.000000
                                        }
                                    }
                                }
                            }
                            JOINT RightFinger2
                            {
                                OFFSET  -8.364480   0.000000   1.078090
                                CHANNELS 3 Zrotation Xrotation Yrotation
                                JOINT RightFinger21
                                {
                                    OFFSET  -5.111620   0.000000   0.000000
                                    CHANNELS 3 Zrotation Xrotation Yrotation
                                    JOINT RightFinger22
                                    {
                                        OFFSET  -2.788160   0.000000   0.000000
                                        CHANNELS 3 Zrotation Xrotation Yrotation
                                        End Site
                                        {
                                            OFFSET  -2.727660   0.000000   0.000000
                                        }
                                    }
                                }
                            }
                            JOINT RightFinger3
                            {
                                OFFSET  -7.899780   0.000000  -1.078090
                                CHANNELS 3 Zrotation Xrotation Yrotation
                                JOINT RightFinger31
                                {
                                    OFFSET  -4.646930   0.000000   0.000000
                                    CHANNELS 3 Zrotation Xrotation Yrotation
                                    JOINT RightFinger32
                                    {
                                        OFFSET  -2.323470   0.000000   0.000000
                                        CHANNELS 3 Zrotation Xrotation Yrotation
                                        End Site
                                        {
                                            OFFSET  -2.273050   0.000000   0.000000
                                        }
                                    }
                                }
                            }
                            JOINT RightFinger4
                            {
                                OFFSET  -7.435090   0.000000  -3.252850
                                CHANNELS 3 Zrotation Xrotation Yrotation
                                JOINT RightFinger41
                                {
                                    OFFSET  -3.717550   0.000000   0.000000
                                    CHANNELS 3 Zrotation Xrotation Yrotation
                                    JOINT RightFinger42
                                    {
                                        OFFSET  -1.858760   0.000000   0.000000
                                        CHANNELS 3 Zrotation Xrotation Yrotation
                                        End Site
                                        {
                                            OFFSET  -1.818440   0.000000   0.000000
                                        }
                                    }
                                }
                            }
                        }
                    }
                }
            }
        }
    }
    JOINT LeftHip
    {
        OFFSET   9.783030   0.000000   0.000000
        CHANNELS 3 Zrotation Xrotation Yrotation
        JOINT LeftKnee
        {
            OFFSET   0.000063 -41.789100   0.000608
            CHANNELS 3 Zrotation Xrotation Yrotation
            JOINT LeftAnkle
            {
                OFFSET   0.000048 -41.133200  -0.000184
                CHANNELS 3 Zrotation Xrotation Yrotation
                JOINT LeftToe
                {
                    OFFSET   0.000000  -6.358960  14.674500
                    CHANNELS 3 Zrotation Xrotation Yrotation
                    End Site
                    {
                        OFFSET   0.000000   0.000000   3.913200
                    }
                }
            }
        }
    }
    JOINT RightHip
    {
        OFFSET  -9.783030   0.000000   0.000000
        CHANNELS 3 Zrotation Xrotation Yrotation
        JOINT RightKnee
        {
            OFFSET   0.000071 -41.789100   0.001239
            CHANNELS 3 Zrotation Xrotation Yrotation
            JOINT RightAnkle
            {
                OFFSET   0.000037 -41.133200  -0.000166
                CHANNELS 3 Zrotation Xrotation Yrotation
                JOINT RightToe
                {
                    OFFSET   0.000000  -6.358960  14.674500
                    CHANNELS 3 Zrotation Xrotation Yrotation
                    End Site
                    {
                        OFFSET   0.000000   0.000000   3.913200
                    }
                }
            }
        }
    }
}
MOTION
Frames: 4
Frame Time:   0.016667
  0.988981  89.590300   0.972593  -3.995820 -11.405400  -3.482810   0.752128   5.759990   1.513660   1.360600  11.537500   2.973560   5.175020   3.620250  -0.327664   8.594330   7.161560  -4.867630  -3.454820  -0.125018  -0.487841 -75.125400  19.498200  -1.287300  -0.789049  -5.358060 -18.433700  15.035500 -12.613900   6.722720  41.397300  36.508200 -68.987200 -30.639500   0.005310   0.003204 -10.319700   0.004868  -0.029343 -31.246000   4.014680  -6.582400 -25.753900   0.005225   0.000951 -18.027700   0.004662  -0.005177 -28.762500  -1.479240   2.693350 -41.895400   0.002733   0.002036 -27.902400   0.003936   0.003276 -28.760400  -1.479120   2.693420 -41.740400   0.003953   0.004182 -27.799100   0.003444   0.004775 -33.236400  -1.685170   2.569580 -49.911100  -0.004684   0.003265 -33.240900   0.003091   0.006675   8.572170   1.863690   6.710910  53.510600   9.746680  29.150500 -45.922700  -8.485800  48.886300  28.217900  29.383900 -24.600800 -45.784100  46.810100  92.641700  11.894300   0.067630  -0.014201   0.947163   0.034026   0.016109  13.692000   6.021820  23.235600  12.214600   0.007715   0.005330   8.550180   0.005812   0.006887   9.482810   2.988340  17.133800   9.933220   0.044435   0.033292   6.615540   0.032042   0.018498   7.067260   1.738360  13.900900   7.292130   0.005189   0.036684   4.856560   0.005680   0.023866  15.537800   1.112210   4.138920  23.393700   0.048355   0.020079  15.580200   0.034537   0.006869   3.799660  14.332200   3.508130   0.571391   0.173422   7.810230  -1.849590  -3.918120   2.299180  -0.000000   0.000000   0.000000   3.404840  12.813300  -5.927830  -0.386098   1.483700  -6.738620   0.301227  -3.658730   3.781760  -0.000000   0.000000   0.000000
  0.945876  89.580400   0.957877  -4.019970 -11.423600  -3.574040   0.734272   5.769910   1.586640   1.317600  11.557300   3.122330   5.140400   3.599120  -0.324114   8.535920   7.122490  -4.622830  -3.468620  -0.166908  -0.546657 -75.077000  19.611800  -1.372000  -0.755125  -5.457400 -18.425800  15.056400 -12.660400   6.727660  41.449800  36.488600 -68.926000 -30.581600   0.005318   0.003225 -10.290800   0.004857  -0.019638 -31.178300   4.030400  -6.623950 -25.700000   0.005225   0.000965 -17.990100   0.004660  -0.005177 -28.764100  -1.461160   2.661230 -41.829500   0.002760   0.001923 -27.858500   0.003881   0.003276 -28.761900  -1.461060   2.661290 -41.712700   0.003954   0.004181 -27.780600   0.003444   0.004775 -33.210800  -1.663630   2.539820 -49.871800  -0.004116   0.003266 -33.214700   0.003091   0.006675   8.582220   1.813150   6.712370  52.591700  10.338700  29.482500 -45.531500  -9.244880  48.627200  35.108800  24.813700 -26.241100 -46.328800  46.902200  92.885400  10.559400   0.039696  -0.007485   0.279699   0.019684   0.008273  13.663800   6.014440  23.252900  12.191100   0.015358   0.006467   8.533760   0.011264   0.006974   8.409330   2.672260  17.457400   8.820820   0.021389   0.011366   5.874670   0.015383   0.006010   6.207380   1.398410  12.763800   6.367120  -0.006451   0.006526   4.240510  -0.003771   0.004497  14.258300   0.747984   2.969000  21.431000   0.041106   0.014805  14.273100   0.028969   0.006714   3.811770  14.368500   3.495060   0.575846   0.137584   7.850700  -1.839540  -3.906620   2.360980  -0.000000   0.000000  -0.000000   3.428210  12.814200  -5.925790  -0.396143   1.480810  -6.720040   0.299615  -3.636660   3.852860  -0.000000   0.000000  -0.000000
  0.901994  89.570500   0.939279  -4.041370 -11.441800  -3.650530   0.719292   5.788530   1.666830   1.277910  11.595200   3.285500   5.097480   3.548080  -0.316266   8.462130   7.024330  -4.427420  -3.493300  -0.215348  -0.598282 -75.031100  19.720000  -1.475020  -0.705154  -5.554350 -18.427300  15.123000 -12.706700   6.736300  41.497000  36.496400 -68.901400 -30.519100   0.005325   0.003246 -10.259500   0.004847  -0.008770 -31.129000   4.052240  -6.673970 -25.662500   0.005225   0.000970 -17.963800   0.004659  -0.005178 -28.766500  -1.434980   2.612830 -41.785200   0.002787   0.001782 -27.828900   0.003826   0.003276 -28.764100  -1.434920   2.612870 -41.693900   0.003955   0.004180 -27.768100   0.003443   0.004775 -33.190800  -1.632820   2.494040 -49.839400  -0.003566   0.003267 -33.193000   0.003091   0.006676   8.605360   1.762570   6.713840  52.142200  10.582100  29.645200 -45.014900  -9.952070  48.530300  39.657600  20.657000 -26.155200 -47.560500  46.993400  93.130800   9.199800   0.004673  -0.000702  -0.400102   0.002304   0.000143  13.466500   5.962860  23.373700  12.026900   0.020464   0.007068   8.418830   0.014870   0.007042   7.764140   2.475930  17.649800   8.149200  -0.010415  -0.008457   5.427360  -0.007484  -0.004884   5.825480   1.245720  12.154600   5.954390  -0.014587  -0.015773   3.965630  -0.010462  -0.009810  12.995200   0.516198   2.225160  19.515200   0.023899   0.006535  12.997100   0.016472   0.006365   3.823090  14.422700   3.483540   0.583336   0.080435   7.870560  -1.827470  -3.886680   2.421460  -0.000000   0.000000   0.000000   3.450370  12.815600  -5.924930  -0.402737   1.474050  -6.706590   0.297521  -3.613870   3.915330  -0.000000   0.000000  -0.000000
  0.863778  89.563700   0.914740  -4.060310 -11.454500  -3.704340   0.708967   5.807480   1.747390   1.245470  11.633600   3.449040   5.042680   3.473930  -0.306223   8.367740   6.880720  -4.269560  -3.516490  -0.256327  -0.656050 -74.996400  19.776800  -1.580940  -0.643937  -5.613870 -18.484000  15.256500 -12.704000   6.747240  41.559000  36.571100 -69.004000 -30.467900   0.005325   0.003223 -10.234000   0.004848  -0.005797 -31.122500   4.081720  -6.726180 -25.661800   0.005222   0.000936 -17.963200   0.004664  -0.005177 -28.769200  -1.403740   2.555890 -41.802600   0.002814   0.001616 -27.840500   0.003772   0.003276 -28.766700  -1.403700   2.555920 -41.740300   0.003955   0.004181 -27.799100   0.003442   0.004775 -33.205100  -1.596260   2.439330 -49.858000  -0.003029   0.003266 -33.205400   0.003091   0.006676   8.648240   1.718750   6.705940  52.407700   9.997170  29.518900 -44.375000 -10.100800  49.132400  42.158000  17.660600 -24.749600 -49.006500  46.635200  92.598300   9.170990  -0.003597  -0.000640  -0.414490  -0.001241  -0.000201  12.609600   5.668700  23.764500  11.306900   0.009920   0.003765   7.914880   0.007253   0.007118   7.951500   2.525100  17.589400   8.343080  -0.019253  -0.008925   5.556480  -0.013511  -0.005421   6.368040   1.395390  12.355100   6.516790  -0.012751  -0.010214   4.340180  -0.008975  -0.009225  12.485100   0.516340   2.250840  18.734400  -0.006462  -0.000098  12.477100  -0.004228   0.005897   3.834610  14.458900   3.476260   0.594541   0.031717   7.870290  -1.820780  -3.866930   2.479100   0.000000   0.000000  -0.000000   3.470620  12.818200  -5.928570  -0.402199   1.464510  -6.710870   0.296121  -3.588720   3.977880  -0.000000   0.000000  -0.000000
